<?xml version="1.0" encoding="utf-8"?>
<!-- Generator: Adobe Illustrator 25.4.1, SVG Export Plug-In . SVG Version: 6.00 Build 0)  -->
<svg version="1.1" id="Layer_1" xmlns="http://www.w3.org/2000/svg" xmlns:xlink="http://www.w3.org/1999/xlink" x="0px" y="0px"
	 viewBox="0 0 100 100" style="enable-background:new 0 0 100 100;" xml:space="preserve">
<style type="text/css">
	.st0{fill:#435C53;stroke:#203851;stroke-width:0.8006;stroke-miterlimit:10;}
	.st1{fill:none;stroke:#203851;stroke-width:0.8006;stroke-miterlimit:10;}
	.st2{font-family:'BernhardFashion-BT';}
	.st3{font-size:9.4487px;}
	.st4{fill:#435C53;stroke:#203851;stroke-miterlimit:10;}
	.st5{font-size:12px;}
</style>
<path class="st0" d="M44.72,20.97c4.36,0.8,8.12,2.91,10.92,5.81l1.06-0.85c-2.96-3.2-7-5.53-11.7-6.39
	c-11.39-2.1-22.38,5.13-24.55,16.15c-0.94,4.8-0.06,9.52,2.18,13.5l1.12-0.63c-2.17-3.72-3.04-8.15-2.16-12.65
	C23.61,25.68,33.96,18.99,44.72,20.97z"/>
<path class="st0" d="M59.11,29.12l-1.02,0.82c2.39,3.82,3.39,8.45,2.46,13.15c-2.01,10.23-12.37,16.91-23.12,14.93
	c-4.57-0.84-8.47-3.12-11.3-6.24l-1.21,0.68c3,3.51,7.24,6.06,12.23,6.98c11.39,2.1,22.38-5.13,24.55-16.15
	C62.69,38.22,61.64,33.23,59.11,29.12z"/>
<line class="st1" x1="18" y1="54.28" x2="64.08" y2="23.47"/>
<text transform="matrix(1.0337 0 0 1 28.8401 35.4503)" class="st0 st2 st3">G</text>
<text transform="matrix(1.0337 0 0 1 43.4939 49.1905)" class="st0 st2 st3">G</text>
<text transform="matrix(1 0 0 1 5.762 79.9274)" class="st4 st2 st5">GOLF WEAR</text>
</svg>
