<?xml version="1.0" encoding="utf-8"?>
<!-- Generator: Adobe Illustrator 25.4.1, SVG Export Plug-In . SVG Version: 6.00 Build 0)  -->
<svg version="1.1" id="Layer_1" xmlns="http://www.w3.org/2000/svg" xmlns:xlink="http://www.w3.org/1999/xlink" x="0px" y="0px"
	 viewBox="0 0 200 200" style="enable-background:new 0 0 200 200;" xml:space="preserve">
<style type="text/css">
	.st0{fill:none;stroke:#203F29;stroke-width:5;stroke-miterlimit:10;}
	.st1{fill:none;stroke:#244454;stroke-width:5;stroke-miterlimit:10;}
	.st2{fill:#192D1D;stroke:#203F29;stroke-width:2.1126;stroke-miterlimit:10;}
	.st3{fill:none;stroke:#244454;stroke-width:2.1126;stroke-miterlimit:10;}
	.st4{fill:none;stroke:#203F29;stroke-width:2.1126;stroke-miterlimit:10;}
	.st5{fill:#FFFFFF;}
	.st6{fill:none;stroke:#244454;stroke-width:1.4428;stroke-miterlimit:10;}
</style>
<ellipse class="st0" cx="101.88" cy="98.9" rx="72.4" ry="71.97"/>
<ellipse class="st1" cx="98.12" cy="95.41" rx="72.4" ry="71.97"/>
<ellipse class="st2" cx="70.99" cy="91.96" rx="4.1" ry="16.55"/>
<ellipse class="st2" cx="131.32" cy="91.96" rx="4.1" ry="16.55"/>
<path class="st3" d="M97.16,107.01c0,0,2.49-2.88,5.8,0"/>
<path class="st4" d="M76.57,126.93c0,0,26.81,16.28,54.76,0"/>
<path class="st4" d="M76.57,123.42c0,0,0.62,5.15-3.94,5.77"/>
<path class="st4" d="M130.46,123.42c0,0-1.04,2.68,3.73,4.53"/>
<path class="st4" d="M31.4,109.49c0,0,5.59-2.4,6.5,3.96"/>
<path class="st4" d="M36.39,121.66c0,0,5.59-2.4,6.5,3.96"/>
<path class="st4" d="M53.11,139.68c0,0,5.59-2.4,6.5,3.96"/>
<path class="st4" d="M72.63,153.27c0,0,5.59-2.4,6.5,3.96"/>
<path class="st4" d="M94.3,150.71c0,0,3.65-4.84,7.63,0.23"/>
<path class="st4" d="M108.66,160.74c0,0,3.65-4.84,7.63,0.23"/>
<path class="st4" d="M117.9,144.69c0,0,3.65-4.84,7.63,0.23"/>
<path class="st4" d="M134.58,148.93c0,0,1.62-5.84,7.18-2.55"/>
<path class="st4" d="M138.17,135.94c0,0,1.62-5.84,7.18-2.55"/>
<path class="st4" d="M147,121.22c0,0,1.62-5.84,7.18-2.55"/>
<path class="st5" d="M162.08,113.03c0,0,1.62-5.84,7.18-2.55"/>
<path class="st4" d="M154.19,130.97c0,0,1.62-5.84,7.18-2.55"/>
<path class="st4" d="M74.61,138.63c0,0,5.59-2.4,6.5,3.96"/>
<path class="st4" d="M52.06,121.66c0,0,5.59-2.4,6.5,3.96"/>
<path class="st6" d="M34.66,130.97"/>
</svg>
