<?xml version="1.0" encoding="utf-8"?>
<!-- Generator: Adobe Illustrator 25.4.1, SVG Export Plug-In . SVG Version: 6.00 Build 0)  -->
<svg version="1.1" id="Layer_1" xmlns="http://www.w3.org/2000/svg" xmlns:xlink="http://www.w3.org/1999/xlink" x="0px" y="0px"
	 viewBox="0 0 200 200" style="enable-background:new 0 0 200 200;" xml:space="preserve">
<style type="text/css">
	.st0{fill:#435C53;stroke:#203851;stroke-width:4.4516;stroke-miterlimit:10;}
	.st1{fill:none;stroke:#203851;stroke-width:4.4516;stroke-miterlimit:10;}
	.st2{fill:#435C53;stroke:#203851;stroke-width:2.2258;stroke-miterlimit:10;}
	.st3{font-family:'BernhardFashion-BT';}
	.st4{font-size:25.9131px;}
	.st5{fill:#435C53;stroke:#203851;stroke-width:2.4618;stroke-miterlimit:10;}
	.st6{font-size:25.3614px;}
</style>
<path class="st0" d="M88.17,16.99c12.34,2.2,22.98,7.98,30.88,15.94l3-2.33c-8.38-8.78-19.79-15.15-33.09-17.53
	c-32.21-5.75-63.3,14.07-69.43,44.29c-2.67,13.15-0.17,26.1,6.16,37.01l3.18-1.74c-6.14-10.21-8.61-22.36-6.11-34.69
	C28.46,29.89,57.74,11.56,88.17,16.99z"/>
<path class="st0" d="M133.37,46.23l-2.9,2.25c6.76,10.48,9.58,23.17,6.97,36.05c-5.7,28.05-34.98,46.38-65.4,40.95
	c-12.93-2.31-23.97-8.55-31.97-17.1l-3.41,1.87c8.5,9.62,20.48,16.63,34.59,19.15c32.21,5.75,63.3-14.07,69.43-44.29
	C143.5,71.19,140.53,57.51,133.37,46.23z"/>
<line class="st1" x1="17.42" y1="114" x2="140.26" y2="28.56"/>
<text transform="matrix(1.0662 0 0 1 46.6167 61.3999)" class="st2 st3 st4">G</text>
<text transform="matrix(1.0662 0 0 1 88.0679 99.0835)" class="st2 st3 st4">G</text>
<text transform="matrix(0.9225 0 0 1 14.812 176.8848)" class="st5 st3 st6">GOLF WEAR</text>
</svg>
